<svg width="392.1368896484375px" height="120.8px" xmlns="http://www.w3.org/2000/svg" viewBox="53.931555175781256 14.600000000000001 392.1368896484375 120.8" style="background: none;" preserveAspectRatio="xMidYMid"><defs><filter id="editing-vintage" x="-100%" y="-100%" width="300%" height="300%"><feConvolveMatrix in="SourceGraphic" result="extrude" order="9,9" divisor="1" kernelMatrix="1,0,0,0,0,0,0,0,0,0,1,0,0,0,0,0,0,0,0,0,1,0,0,0,0,0,0,0,0,0,1,0,0,0,0,0,0,0,0,0,1,0,0,0,0,0,0,0,0,0,1,0,0,0,0,0,0,0,0,0,1,0,0,0,0,0,0,0,0,0,1,0,0,0,0,0,0,0,0,0,1"> </feConvolveMatrix><feFlood flood-color="#f9ae5c" result="flood-extrude"></feFlood><feComposite operator="in" in="flood-extrude" in2="extrude" result="extrude-color"></feComposite><feOffset dx="5" dy="5" in="extrude-color" result="extrude-offset"></feOffset><feColorMatrix in="SourceGraphic" result="stroke" type="matrix" values="0 0 0 0 0 0 0 0 0 0 0 0 0 0 0 0 1 0 0 0 "></feColorMatrix><feColorMatrix in="SourceGraphic" result="fill" type="matrix" values="0 0 0 0 0 0 0 0 0 0 0 0 0 0 0 1 0 0 1 0 "></feColorMatrix><feConvolveMatrix in="stroke" result="inner-shadow" order="5,5" divisor="1" kernelMatrix="1 0 0 0 0 0 1 0 0 0 0 0 1 0 0 0 0 0 1 0 0 0 0 0 1 "></feConvolveMatrix><feOffset dx="1" dy="1" in="inner-shadow" result="offset"></feOffset><feComposite operator="in" in="offset" in2="SourceAlpha" result="comp"></feComposite><feFlood flood-color="none" result="flood3"></feFlood><feComposite operator="in" in="flood3" in2="comp" result="comp2"></feComposite><feColorMatrix in="comp2" result="comp3" type="matrix" values="1 0 0 0 0 0 1 0 0 0 0 0 1 0 0 0 0 0 0.5 0 "></feColorMatrix><feFlood flood-color="#0a0a0a" result="flood1"></feFlood><feComposite operator="in" in="flood1" in2="fill" result="fill2"></feComposite><feFlood flood-color="#fff" result="flood2"></feFlood><feComposite operator="in" in="flood2" in2="stroke" result="stroke2"></feComposite><feMerge result="obj"><feMergeNode in="extrude-offset"></feMergeNode><feMergeNode in="fill2"></feMergeNode><feMergeNode in="comp3"></feMergeNode></feMerge><feConvolveMatrix in="SourceAlpha" result="shadow" order="9,9" divisor="1" kernelMatrix="1,0,0,0,0,0,0,0,0,0,1,0,0,0,0,0,0,0,0,0,1,0,0,0,0,0,0,0,0,0,1,0,0,0,0,0,0,0,0,0,1,0,0,0,0,0,0,0,0,0,1,0,0,0,0,0,0,0,0,0,1,0,0,0,0,0,0,0,0,0,1,0,0,0,0,0,0,0,0,0,1"></feConvolveMatrix><feOffset dx="15" dy="15" in="shadow" result="shadow-offset"></feOffset><feFlood flood-color="none" result="flood-shadow"></feFlood><feComposite operator="in" in="flood-shadow" in2="shadow-offset" result="shadow-color"></feComposite><feMerge><feMergeNode in="shadow-color"></feMergeNode><feMergeNode in="obj"></feMergeNode></feMerge></filter></defs><g transform="translate(-9,-9)"><g filter="url(#editing-vintage)"><g transform="translate(113.92149078845978, 98.68000030517578)"><path d="M26.05-29.57L26.05-29.57L26.05-29.57Q27.01-31.49 27.01-33.28L27.01-33.28L27.01-33.28Q27.01-35.07 26.82-36.06L26.82-36.06L26.82-36.06Q26.62-37.06 26.18-37.82L26.18-37.82L26.18-37.82Q25.22-39.49 23.30-39.49L23.30-39.49L23.30-39.49Q20.93-39.49 19.01-37.76L19.01-37.76L19.01-37.76Q16.96-35.97 16.96-33.15L16.96-33.15L16.96-33.15Q16.96-31.36 18.21-29.98L18.21-29.98L18.21-29.98Q19.46-28.61 21.38-27.33L21.38-27.33L21.38-27.33Q23.30-26.05 25.47-24.77L25.47-24.77L25.47-24.77Q27.65-23.49 29.57-21.95L29.57-21.95L29.57-21.95Q33.98-18.43 33.98-13.70L33.98-13.70L33.98-13.70Q33.98-10.50 32.29-7.78L32.29-7.78L32.29-7.78Q30.59-5.06 27.78-3.07L27.78-3.07L27.78-3.07Q21.63 1.28 13.50 1.28L13.50 1.28L13.50 1.28Q6.91 1.28 3.52-0.86L3.52-0.86L3.52-0.86Q0.13-3.01 0.13-6.27L0.13-6.27L0.13-6.27Q0.13-12.10 4.67-13.57L4.67-13.57L4.67-13.57Q5.95-14.02 7.90-14.02L7.90-14.02L7.90-14.02Q9.86-14.02 12.10-13.18L12.10-13.18L12.10-13.18Q11.07-10.56 11.07-8.19L11.07-8.19L11.07-8.19Q11.07-3.07 14.72-3.07L14.72-3.07L14.72-3.07Q17.09-3.07 19.04-4.80L19.04-4.80L19.04-4.80Q20.99-6.53 20.99-8.48L20.99-8.48L20.99-8.48Q20.99-10.43 19.74-11.84L19.74-11.84L19.74-11.84Q18.50-13.25 16.64-14.37L16.64-14.37L16.64-14.37Q14.78-15.49 12.64-16.58L12.64-16.58L12.64-16.58Q10.50-17.66 8.64-19.20L8.64-19.20L8.64-19.20Q4.29-22.72 4.29-28.35L4.29-28.35L4.29-28.35Q4.29-32 6.08-34.85L6.08-34.85L6.08-34.85Q7.87-37.70 10.75-39.62L10.75-39.62L10.75-39.62Q16.51-43.52 23.58-43.52L23.58-43.52L23.58-43.52Q30.66-43.52 34.08-41.41L34.08-41.41L34.08-41.41Q37.50-39.30 37.50-35.71L37.50-35.71L37.50-35.71Q37.50-32.58 35.07-30.59L35.07-30.59L35.07-30.59Q32.96-28.93 30.40-28.93L30.40-28.93L30.40-28.93Q27.84-28.93 26.05-29.57ZM52.80 1.28L52.80 1.28L52.80 1.28Q38.72 1.28 38.72-11.97L38.72-11.97L38.72-11.97Q38.72-21.38 43.90-27.46L43.90-27.46L43.90-27.46Q49.41-33.92 58.94-33.92L58.94-33.92L58.94-33.92Q65.86-33.92 69.38-30.72L69.38-30.72L69.38-30.72Q72.90-27.52 72.90-20.80L72.90-20.80L72.90-20.80Q72.90-10.56 67.39-4.61L67.39-4.61L67.39-4.61Q62.02 1.28 52.80 1.28ZM54.46-26.56L54.46-26.56L54.46-26.56Q53.70-24.83 53.09-22.24L53.09-22.24L53.09-22.24Q52.48-19.65 51.71-15.55L51.71-15.55L51.71-15.55Q50.94-11.46 50.94-6.40L50.94-6.40L50.94-6.40Q50.94-4.74 51.49-3.65L51.49-3.65L51.49-3.65Q52.03-2.56 53.50-2.56L53.50-2.56L53.50-2.56Q54.98-2.56 55.90-3.26L55.90-3.26L55.90-3.26Q56.83-3.97 57.54-5.63L57.54-5.63L57.54-5.63Q58.82-8.58 59.84-14.05L59.84-14.05L59.84-14.05Q60.86-19.52 60.96-21.89L60.96-21.89L60.96-21.89Q61.06-24.26 61.06-26.02L61.06-26.02L61.06-26.02Q61.06-27.78 60.54-28.93L60.54-28.93L60.54-28.93Q60.03-30.08 58.59-30.08L58.59-30.08L58.59-30.08Q57.15-30.08 56.19-29.18L56.19-29.18L56.19-29.18Q55.23-28.29 54.46-26.56ZM90.62 1.28L90.62 1.28L90.62 1.28Q76.54 1.28 76.54-11.97L76.54-11.97L76.54-11.97Q76.54-21.38 81.73-27.46L81.73-27.46L81.73-27.46Q87.23-33.92 96.77-33.92L96.77-33.92L96.77-33.92Q103.68-33.92 107.20-30.72L107.20-30.72L107.20-30.72Q110.72-27.52 110.72-20.80L110.72-20.80L110.72-20.80Q110.72-10.56 105.22-4.61L105.22-4.61L105.22-4.61Q99.84 1.28 90.62 1.28ZM92.29-26.56L92.29-26.56L92.29-26.56Q91.52-24.83 90.91-22.24L90.91-22.24L90.91-22.24Q90.30-19.65 89.54-15.55L89.54-15.55L89.54-15.55Q88.77-11.46 88.77-6.40L88.77-6.40L88.77-6.40Q88.77-4.74 89.31-3.65L89.31-3.65L89.31-3.65Q89.86-2.56 91.33-2.56L91.33-2.56L91.33-2.56Q92.80-2.56 93.73-3.26L93.73-3.26L93.73-3.26Q94.66-3.97 95.36-5.63L95.36-5.63L95.36-5.63Q96.64-8.58 97.66-14.05L97.66-14.05L97.66-14.05Q98.69-19.52 98.78-21.89L98.78-21.89L98.78-21.89Q98.88-24.26 98.88-26.02L98.88-26.02L98.88-26.02Q98.88-27.78 98.37-28.93L98.37-28.93L98.37-28.93Q97.86-30.08 96.42-30.08L96.42-30.08L96.42-30.08Q94.98-30.08 94.02-29.18L94.02-29.18L94.02-29.18Q93.06-28.29 92.29-26.56ZM128.45 1.28L128.45 1.28L128.45 1.28Q114.37 1.28 114.37-11.97L114.37-11.97L114.37-11.97Q114.37-21.38 119.55-27.46L119.55-27.46L119.55-27.46Q125.06-33.92 134.59-33.92L134.59-33.92L134.59-33.92Q141.50-33.92 145.02-30.72L145.02-30.72L145.02-30.72Q148.54-27.52 148.54-20.80L148.54-20.80L148.54-20.80Q148.54-10.56 143.04-4.61L143.04-4.61L143.04-4.61Q137.66 1.28 128.45 1.28ZM130.11-26.56L130.11-26.56L130.11-26.56Q129.34-24.83 128.74-22.24L128.74-22.24L128.74-22.24Q128.13-19.65 127.36-15.55L127.36-15.55L127.36-15.55Q126.59-11.46 126.59-6.40L126.59-6.40L126.59-6.40Q126.59-4.74 127.14-3.65L127.14-3.65L127.14-3.65Q127.68-2.56 129.15-2.56L129.15-2.56L129.15-2.56Q130.62-2.56 131.55-3.26L131.55-3.26L131.55-3.26Q132.48-3.97 133.18-5.63L133.18-5.63L133.18-5.63Q134.46-8.58 135.49-14.05L135.49-14.05L135.49-14.05Q136.51-19.52 136.61-21.89L136.61-21.89L136.61-21.89Q136.70-24.26 136.70-26.02L136.70-26.02L136.70-26.02Q136.70-27.78 136.19-28.93L136.19-28.93L136.19-28.93Q135.68-30.08 134.24-30.08L134.24-30.08L134.24-30.08Q132.80-30.08 131.84-29.18L131.84-29.18L131.84-29.18Q130.88-28.29 130.11-26.56ZM172.86-2.69L172.86-2.69L172.86-2.69Q169.79 1.28 162.18 1.28L162.18 1.28L162.18 1.28Q158.21 1.28 155.33-1.12L155.33-1.12L155.33-1.12Q152.45-3.52 152.45-6.98L152.45-6.98L152.45-6.98Q152.45-8.90 152.64-9.86L152.64-9.86L156.93-32.64L169.92-33.92L165.25-9.22L165.25-9.22Q164.99-7.81 164.99-6.98L164.99-6.98L164.99-6.98Q164.99-3.26 167.23-3.26L167.23-3.26L167.23-3.26Q169.73-3.26 171.52-6.66L171.52-6.66L171.52-6.66Q172.10-7.74 172.35-9.15L172.35-9.15L176.90-32.64L189.50-33.92L184.77-8.96L184.77-8.96Q184.58-8 184.58-6.98L184.58-6.98L184.58-6.98Q184.58-5.95 185.15-4.83L185.15-4.83L185.15-4.83Q185.73-3.71 187.58-3.46L187.58-3.46L187.58-3.46Q187.20-1.92 185.86-0.90L185.86-0.90L185.86-0.90Q183.04 1.28 180 1.28L180 1.28L180 1.28Q176.96 1.28 175.17 0.19L175.17 0.19L175.17 0.19Q173.38-0.90 172.86-2.69ZM220.03 1.28L220.03 1.28L220.03 1.28Q212.29 1.28 212.29-4.74L212.29-4.74L212.29-4.74Q212.35-6.40 212.86-9.22L212.86-9.22L214.02-15.10L214.02-15.10Q215.74-23.42 215.74-25.28L215.74-25.28L215.74-25.28Q215.74-28.99 213.57-28.99L213.57-28.99L213.57-28.99Q209.92-28.99 208-19.46L208-19.46L204.22 0L191.36 1.28L198.02-32.70L208.51-33.92L207.49-27.65L207.49-27.65Q210.50-33.92 219.71-33.92L219.71-33.92L219.71-33.92Q224.19-33.92 226.08-32.03L226.08-32.03L226.08-32.03Q227.97-30.14 227.97-25.92L227.97-25.92L227.97-25.92Q227.97-21.95 225.92-12.67L225.92-12.67L225.92-12.67Q224.96-8.51 224.96-6.94L224.96-6.94L224.96-6.94Q224.96-5.38 225.82-4.48L225.82-4.48L225.82-4.48Q226.69-3.58 227.97-3.46L227.97-3.46L227.97-3.46Q227.33-1.28 225.12 0L225.12 0L225.12 0Q222.91 1.28 220.03 1.28ZM253.25-33.92L253.25-33.92L253.25-33.92Q255.55-33.92 257.34-33.41L257.34-33.41L257.34-33.41Q257.41-33.66 257.54-34.37L257.54-34.37L257.86-36.35L257.86-36.35Q258.11-37.63 258.50-39.74L258.50-39.74L259.52-44.80L272.26-46.08L265.15-8.96L265.15-8.96Q265.09-8.58 265.09-7.94L265.09-7.94L265.09-6.91L265.09-6.91Q265.09-5.50 265.79-4.45L265.79-4.45L265.79-4.45Q266.50-3.39 267.65-3.39L267.65-3.39L267.65-3.39Q266.37-0.38 262.46 0.90L262.46 0.90L262.46 0.90Q261.12 1.28 259.23 1.28L259.23 1.28L259.23 1.28Q257.34 1.28 255.62 0.29L255.62 0.29L255.62 0.29Q253.89-0.70 253.38-2.37L253.38-2.37L253.38-2.37Q252.35-0.70 250.30 0.29L250.30 0.29L250.30 0.29Q248.26 1.28 245.28 1.28L245.28 1.28L245.28 1.28Q242.30 1.28 239.84 0.51L239.84 0.51L239.84 0.51Q237.38-0.26 235.84-1.92L235.84-1.92L235.84-1.92Q233.02-5.18 233.02-12.61L233.02-12.61L233.02-12.61Q233.02-22.21 238.66-28.03L238.66-28.03L238.66-28.03Q244.29-33.92 253.25-33.92ZM252.80-30.08L252.80-30.08L252.80-30.08Q250.43-30.08 249.15-27.52L249.15-27.52L249.15-27.52Q247.87-24.96 246.56-18.62L246.56-18.62L246.56-18.62Q245.25-12.29 245.25-6.59L245.25-6.59L245.25-6.59Q245.25-2.69 247.55-2.69L247.55-2.69L247.55-2.69Q249.60-2.69 251.04-4.74L251.04-4.74L251.04-4.74Q252.48-6.78 253.06-10.18L253.06-10.18L256.51-28.93L256.51-28.93Q255.17-30.08 252.80-30.08Z" fill="#f00" stroke="#0f0" stroke-width="1.8"></path></g></g><g><g transform="translate(113.8029910326004, 98.68000030517578)"><path d="M26.05-29.57L26.05-29.57L26.05-29.57Q27.01-31.49 27.01-33.28L27.01-33.28L27.01-33.28Q27.01-35.07 26.82-36.06L26.82-36.06L26.82-36.06Q26.62-37.06 26.18-37.82L26.18-37.82L26.18-37.82Q25.22-39.49 23.30-39.49L23.30-39.49L23.30-39.49Q20.93-39.49 19.01-37.76L19.01-37.76L19.01-37.76Q16.96-35.97 16.96-33.15L16.96-33.15L16.96-33.15Q16.96-31.36 18.21-29.98L18.21-29.98L18.21-29.98Q19.46-28.61 21.38-27.33L21.38-27.33L21.38-27.33Q23.30-26.05 25.47-24.77L25.47-24.77L25.47-24.77Q27.65-23.49 29.57-21.95L29.57-21.95L29.57-21.95Q33.98-18.43 33.98-13.70L33.98-13.70L33.98-13.70Q33.98-10.50 32.29-7.78L32.29-7.78L32.29-7.78Q30.59-5.06 27.78-3.07L27.78-3.07L27.78-3.07Q21.63 1.28 13.50 1.28L13.50 1.28L13.50 1.28Q6.91 1.28 3.52-0.86L3.52-0.86L3.52-0.86Q0.13-3.01 0.13-6.27L0.13-6.27L0.13-6.27Q0.13-12.10 4.67-13.57L4.67-13.57L4.67-13.57Q5.95-14.02 7.90-14.02L7.90-14.02L7.90-14.02Q9.86-14.02 12.10-13.18L12.10-13.18L12.10-13.18Q11.07-10.56 11.07-8.19L11.07-8.19L11.07-8.19Q11.07-3.07 14.72-3.07L14.72-3.07L14.72-3.07Q17.09-3.07 19.04-4.80L19.04-4.80L19.04-4.80Q20.99-6.53 20.99-8.48L20.99-8.48L20.99-8.48Q20.99-10.43 19.74-11.84L19.74-11.84L19.74-11.84Q18.50-13.25 16.64-14.37L16.64-14.37L16.64-14.37Q14.78-15.49 12.64-16.58L12.64-16.58L12.64-16.58Q10.50-17.66 8.64-19.20L8.64-19.20L8.64-19.20Q4.29-22.72 4.29-28.35L4.29-28.35L4.29-28.35Q4.29-32 6.08-34.85L6.08-34.85L6.08-34.85Q7.87-37.70 10.75-39.62L10.75-39.62L10.75-39.62Q16.51-43.52 23.58-43.52L23.58-43.52L23.58-43.52Q30.66-43.52 34.08-41.41L34.08-41.41L34.08-41.41Q37.50-39.30 37.50-35.71L37.50-35.71L37.50-35.71Q37.50-32.58 35.07-30.59L35.07-30.59L35.07-30.59Q32.96-28.93 30.40-28.93L30.40-28.93L30.40-28.93Q27.84-28.93 26.05-29.57ZM52.80 1.28L52.80 1.28L52.80 1.28Q38.72 1.28 38.72-11.97L38.72-11.97L38.72-11.97Q38.72-21.38 43.90-27.46L43.90-27.46L43.90-27.46Q49.41-33.92 58.94-33.92L58.94-33.92L58.94-33.92Q65.86-33.92 69.38-30.72L69.38-30.72L69.38-30.72Q72.90-27.52 72.90-20.80L72.90-20.80L72.90-20.80Q72.90-10.56 67.39-4.61L67.39-4.61L67.39-4.61Q62.02 1.28 52.80 1.28ZM54.46-26.56L54.46-26.56L54.46-26.56Q53.70-24.83 53.09-22.24L53.09-22.24L53.09-22.24Q52.48-19.65 51.71-15.55L51.71-15.55L51.71-15.55Q50.94-11.46 50.94-6.40L50.94-6.40L50.94-6.40Q50.94-4.74 51.49-3.65L51.49-3.65L51.49-3.65Q52.03-2.56 53.50-2.56L53.50-2.56L53.50-2.56Q54.98-2.56 55.90-3.26L55.90-3.26L55.90-3.26Q56.83-3.97 57.54-5.63L57.54-5.63L57.54-5.63Q58.82-8.58 59.84-14.05L59.84-14.05L59.84-14.05Q60.86-19.52 60.96-21.89L60.96-21.89L60.96-21.89Q61.06-24.26 61.06-26.02L61.06-26.02L61.06-26.02Q61.06-27.78 60.54-28.93L60.54-28.93L60.54-28.93Q60.03-30.08 58.59-30.08L58.59-30.08L58.59-30.08Q57.15-30.08 56.19-29.18L56.19-29.18L56.19-29.18Q55.23-28.29 54.46-26.56ZM90.62 1.28L90.62 1.28L90.62 1.28Q76.54 1.28 76.54-11.97L76.54-11.97L76.54-11.97Q76.54-21.38 81.73-27.46L81.73-27.46L81.73-27.46Q87.23-33.92 96.77-33.92L96.77-33.92L96.77-33.92Q103.68-33.92 107.20-30.72L107.20-30.72L107.20-30.72Q110.72-27.52 110.72-20.80L110.72-20.80L110.72-20.80Q110.72-10.56 105.22-4.61L105.22-4.61L105.22-4.61Q99.84 1.28 90.62 1.28ZM92.29-26.56L92.29-26.56L92.29-26.56Q91.52-24.83 90.91-22.24L90.91-22.24L90.91-22.24Q90.30-19.65 89.54-15.55L89.54-15.55L89.54-15.55Q88.77-11.46 88.77-6.40L88.77-6.40L88.77-6.40Q88.77-4.74 89.31-3.65L89.31-3.65L89.31-3.65Q89.86-2.56 91.33-2.56L91.33-2.56L91.33-2.56Q92.80-2.56 93.73-3.26L93.73-3.26L93.73-3.26Q94.66-3.97 95.36-5.63L95.36-5.63L95.36-5.63Q96.64-8.58 97.66-14.05L97.66-14.05L97.66-14.05Q98.69-19.52 98.78-21.89L98.78-21.89L98.78-21.89Q98.88-24.26 98.88-26.02L98.88-26.02L98.88-26.02Q98.88-27.78 98.37-28.93L98.37-28.93L98.37-28.93Q97.86-30.08 96.42-30.08L96.42-30.08L96.42-30.08Q94.98-30.08 94.02-29.18L94.02-29.18L94.02-29.18Q93.06-28.29 92.29-26.56ZM128.45 1.28L128.45 1.28L128.45 1.28Q114.37 1.28 114.37-11.97L114.37-11.97L114.37-11.97Q114.37-21.38 119.55-27.46L119.55-27.46L119.55-27.46Q125.06-33.92 134.59-33.92L134.59-33.92L134.59-33.92Q141.50-33.92 145.02-30.72L145.02-30.72L145.02-30.72Q148.54-27.52 148.54-20.80L148.54-20.80L148.54-20.80Q148.54-10.56 143.04-4.61L143.04-4.61L143.04-4.61Q137.66 1.28 128.45 1.28ZM130.11-26.56L130.11-26.56L130.11-26.56Q129.34-24.83 128.74-22.24L128.74-22.24L128.74-22.24Q128.13-19.65 127.36-15.55L127.36-15.55L127.36-15.55Q126.59-11.46 126.59-6.40L126.59-6.40L126.59-6.40Q126.59-4.74 127.14-3.65L127.14-3.65L127.14-3.65Q127.68-2.56 129.15-2.56L129.15-2.56L129.15-2.56Q130.62-2.56 131.55-3.26L131.55-3.26L131.55-3.26Q132.48-3.97 133.18-5.63L133.18-5.63L133.18-5.63Q134.46-8.58 135.49-14.05L135.49-14.05L135.49-14.05Q136.51-19.52 136.61-21.89L136.61-21.89L136.61-21.89Q136.70-24.26 136.70-26.02L136.70-26.02L136.70-26.02Q136.70-27.78 136.19-28.93L136.19-28.93L136.19-28.93Q135.68-30.08 134.24-30.08L134.24-30.08L134.24-30.08Q132.80-30.08 131.84-29.18L131.84-29.18L131.84-29.18Q130.88-28.29 130.11-26.56ZM172.86-2.69L172.86-2.69L172.86-2.69Q169.79 1.28 162.18 1.28L162.18 1.28L162.18 1.28Q158.21 1.28 155.33-1.12L155.33-1.12L155.33-1.12Q152.45-3.52 152.45-6.98L152.45-6.98L152.45-6.98Q152.45-8.90 152.64-9.86L152.64-9.86L156.93-32.64L169.92-33.92L165.25-9.22L165.25-9.22Q164.99-7.81 164.99-6.98L164.99-6.98L164.99-6.98Q164.99-3.26 167.23-3.26L167.23-3.26L167.23-3.26Q169.73-3.26 171.52-6.66L171.52-6.66L171.52-6.66Q172.10-7.74 172.35-9.15L172.35-9.15L176.90-32.64L189.50-33.92L184.77-8.96L184.77-8.96Q184.58-8 184.58-6.98L184.58-6.98L184.58-6.98Q184.58-5.95 185.15-4.83L185.15-4.83L185.15-4.83Q185.73-3.71 187.58-3.46L187.58-3.46L187.58-3.46Q187.20-1.92 185.86-0.90L185.86-0.90L185.86-0.90Q183.04 1.28 180 1.28L180 1.28L180 1.28Q176.96 1.28 175.17 0.19L175.17 0.19L175.17 0.19Q173.38-0.90 172.86-2.69ZM220.03 1.28L220.03 1.28L220.03 1.28Q212.29 1.28 212.29-4.74L212.29-4.74L212.29-4.74Q212.35-6.40 212.86-9.22L212.86-9.22L214.02-15.10L214.02-15.10Q215.74-23.42 215.74-25.28L215.74-25.28L215.74-25.28Q215.74-28.99 213.57-28.99L213.57-28.99L213.57-28.99Q209.92-28.99 208-19.46L208-19.46L204.22 0L191.36 1.28L198.02-32.70L208.51-33.92L207.49-27.65L207.49-27.65Q210.50-33.92 219.71-33.92L219.71-33.92L219.71-33.92Q224.19-33.92 226.08-32.03L226.08-32.03L226.08-32.03Q227.97-30.14 227.97-25.92L227.97-25.92L227.97-25.92Q227.97-21.95 225.92-12.67L225.92-12.67L225.92-12.67Q224.96-8.51 224.96-6.94L224.96-6.94L224.96-6.94Q224.96-5.38 225.82-4.48L225.82-4.48L225.82-4.48Q226.69-3.58 227.97-3.46L227.97-3.46L227.97-3.46Q227.33-1.28 225.12 0L225.12 0L225.12 0Q222.91 1.28 220.03 1.28ZM253.25-33.92L253.25-33.92L253.25-33.92Q255.55-33.92 257.34-33.41L257.34-33.41L257.34-33.41Q257.41-33.66 257.54-34.37L257.54-34.37L257.86-36.35L257.86-36.35Q258.11-37.63 258.50-39.74L258.50-39.74L259.52-44.80L272.26-46.08L265.15-8.96L265.15-8.96Q265.09-8.58 265.09-7.94L265.09-7.94L265.09-6.91L265.09-6.91Q265.09-5.50 265.79-4.45L265.79-4.45L265.79-4.45Q266.50-3.39 267.65-3.39L267.65-3.39L267.65-3.39Q266.37-0.38 262.46 0.90L262.46 0.90L262.46 0.90Q261.12 1.28 259.23 1.28L259.23 1.28L259.23 1.28Q257.34 1.28 255.62 0.29L255.62 0.29L255.62 0.29Q253.89-0.70 253.38-2.37L253.38-2.37L253.38-2.37Q252.35-0.70 250.30 0.29L250.30 0.29L250.30 0.29Q248.26 1.28 245.28 1.28L245.28 1.28L245.28 1.28Q242.30 1.28 239.84 0.51L239.84 0.51L239.84 0.51Q237.38-0.26 235.84-1.92L235.84-1.92L235.84-1.92Q233.02-5.18 233.02-12.61L233.02-12.61L233.02-12.61Q233.02-22.21 238.66-28.03L238.66-28.03L238.66-28.03Q244.29-33.92 253.25-33.92ZM252.80-30.08L252.80-30.08L252.80-30.08Q250.43-30.08 249.15-27.52L249.15-27.52L249.15-27.52Q247.87-24.96 246.56-18.62L246.56-18.62L246.56-18.62Q245.25-12.29 245.25-6.59L245.25-6.59L245.25-6.59Q245.25-2.69 247.55-2.69L247.55-2.69L247.55-2.69Q249.60-2.69 251.04-4.74L251.04-4.74L251.04-4.74Q252.48-6.78 253.06-10.18L253.06-10.18L256.51-28.93L256.51-28.93Q255.17-30.08 252.80-30.08Z" fill="none" stroke="#fff" stroke-width="2.1"></path></g></g></g><style>text {
  font-size: 64px;
  font-family: Arial Black;
  dominant-baseline: central;
  text-anchor: middle;
}</style></svg>